<svg width="110" height="56" viewBox="0 0 110 56" fill="none" xmlns="http://www.w3.org/2000/svg">
<path d="M32.5425 1.3125L28.8862 22.3438L20.0112 22.5312L18.105 11.9375L16.1987 21.7188L7.32375 22.0312L3.63625 1.9375L11.3862 1.25L12.9487 13.5938L15.0425 2.1875H21.1362L23.5737 13.75L24.8237 0.625L32.5425 1.3125ZM65.1562 1L64.0625 22.2812L57.4688 22.625L56.8438 1.4375L65.1562 1ZM84.2131 15C84.2131 16.4271 83.9631 17.6615 83.4631 18.7031C82.9735 19.7344 82.2965 20.5885 81.4319 21.2656C80.5777 21.9323 79.5725 22.4271 78.4162 22.75C77.2704 23.0625 76.036 23.2188 74.7131 23.2188C74.2027 23.2188 73.6402 23.151 73.0256 23.0156C72.4215 22.8802 71.8069 22.7135 71.1819 22.5156C70.5569 22.3073 69.9527 22.0885 69.3694 21.8594C68.7965 21.6198 68.286 21.3958 67.8381 21.1875L68.5256 15.0625C69.411 15.5938 70.3902 16 71.4631 16.2812C72.5465 16.5521 73.609 16.6875 74.6506 16.6875C74.8485 16.6875 75.0881 16.6823 75.3694 16.6719C75.6506 16.651 75.9162 16.6042 76.1662 16.5312C76.4267 16.4479 76.6454 16.3281 76.8225 16.1719C76.9996 16.0156 77.0881 15.7917 77.0881 15.5C77.0881 15.3021 77.0256 15.1354 76.9006 15C76.7756 14.8542 76.6142 14.7396 76.4162 14.6562C76.2183 14.5625 75.9944 14.4948 75.7444 14.4531C75.4944 14.401 75.2496 14.3646 75.01 14.3438C74.7704 14.3229 74.5465 14.3125 74.3381 14.3125C74.1298 14.3125 73.9631 14.3125 73.8381 14.3125C72.9423 14.3125 72.1246 14.1719 71.385 13.8906C70.6558 13.6094 70.0256 13.2135 69.4944 12.7031C68.9735 12.1823 68.5673 11.5573 68.2756 10.8281C67.984 10.0885 67.8381 9.27083 67.8381 8.375C67.8381 7.14583 68.0829 6.04688 68.5725 5.07812C69.0725 4.09896 69.734 3.27083 70.5569 2.59375C71.3902 1.90625 72.3433 1.38021 73.4162 1.01562C74.4892 0.651042 75.5985 0.46875 76.7444 0.46875C77.2548 0.46875 77.7808 0.489583 78.3225 0.53125C78.8642 0.5625 79.4006 0.625 79.9319 0.71875C80.4735 0.8125 80.9996 0.932292 81.51 1.07812C82.0204 1.22396 82.5048 1.40625 82.9631 1.625L82.3694 7.96875C81.661 7.72917 80.9162 7.53125 80.135 7.375C79.3642 7.20833 78.609 7.125 77.8694 7.125C77.734 7.125 77.5569 7.13021 77.3381 7.14062C77.1298 7.14062 76.9058 7.15625 76.6662 7.1875C76.4371 7.20833 76.2027 7.24479 75.9631 7.29688C75.7235 7.34896 75.51 7.42188 75.3225 7.51562C75.135 7.59896 74.984 7.71354 74.8694 7.85938C74.7548 8.00521 74.7027 8.17708 74.7131 8.375C74.7235 8.60417 74.8069 8.78125 74.9631 8.90625C75.1298 9.03125 75.3381 9.125 75.5881 9.1875C75.8485 9.23958 76.1298 9.26562 76.4319 9.26562C76.7444 9.26562 77.0517 9.26042 77.3537 9.25C77.6558 9.22917 77.9371 9.21354 78.1975 9.20312C78.4579 9.18229 78.6715 9.17708 78.8381 9.1875C79.6715 9.23958 80.4215 9.41667 81.0881 9.71875C81.7548 10.0208 82.3173 10.4219 82.7756 10.9219C83.2444 11.4219 83.5985 12.0208 83.8381 12.7188C84.0881 13.4062 84.2131 14.1667 84.2131 15ZM106.192 2.8125L99.2856 11.0312L105.629 21.7812L98.3794 23.0625L93.6294 16.625L93.3794 22.75L86.8794 23L87.3794 0.625L94.6606 1.03125L94.0981 7.46875L98.6294 0.9375L106.192 2.8125ZM17.3969 53.4688C17.0323 53.1875 16.6677 52.9167 16.3031 52.6562C15.9385 52.3958 15.574 52.125 15.2094 51.8438C14.699 52.25 14.1208 52.6406 13.475 53.0156C12.8396 53.3906 12.1573 53.7135 11.4281 53.9844C10.699 54.2552 9.94375 54.4583 9.1625 54.5938C8.38125 54.7292 7.59479 54.7604 6.80312 54.6875C5.89687 54.625 5.04792 54.4479 4.25625 54.1562C3.475 53.8542 2.80312 53.4688 2.24062 53C1.67812 52.5312 1.25104 51.9948 0.959373 51.3906C0.678123 50.7865 0.584373 50.1458 0.678123 49.4688C0.761457 48.8958 0.948957 48.3438 1.24062 47.8125C1.54271 47.2708 1.90729 46.7552 2.33437 46.2656C2.76146 45.776 3.24062 45.3125 3.77187 44.875C4.30312 44.4271 4.84479 44.0104 5.39687 43.625C5.00104 43.2396 4.62604 42.8333 4.27187 42.4062C3.92812 41.9688 3.63125 41.5208 3.38125 41.0625C3.13125 40.5938 2.94375 40.1198 2.81875 39.6406C2.70417 39.151 2.68854 38.6562 2.77187 38.1562C2.87604 37.4896 3.15208 36.8594 3.6 36.2656C4.04792 35.6719 4.61562 35.1615 5.30312 34.7344C5.99062 34.3073 6.76146 33.9844 7.61562 33.7656C8.48021 33.5365 9.37604 33.4583 10.3031 33.5312C11.1573 33.5938 11.949 33.7969 12.6781 34.1406C13.4177 34.4844 14.0479 34.9115 14.5687 35.4219C15.0896 35.9323 15.4802 36.5 15.7406 37.125C16.001 37.7396 16.0844 38.3542 15.9906 38.9688C15.9177 39.4688 15.7562 39.9375 15.5062 40.375C15.2562 40.8125 14.949 41.2292 14.5844 41.625C14.2302 42.0104 13.8292 42.3854 13.3812 42.75C12.9437 43.1042 12.501 43.4583 12.0531 43.8125C12.4906 44.1458 12.9073 44.4688 13.3031 44.7812C13.7094 45.0833 14.126 45.3854 14.5531 45.6875C14.7406 45.4167 14.9229 45.1354 15.1 44.8438C15.2771 44.5521 15.4385 44.25 15.5844 43.9375L20.2406 45.0625C20.0323 45.6458 19.7562 46.2344 19.4125 46.8281C19.0792 47.4115 18.7094 47.9792 18.3031 48.5312C18.7615 48.8646 19.2094 49.1823 19.6469 49.4844C20.0844 49.7865 20.5323 50.1042 20.9906 50.4375L17.3969 53.4688ZM10.1469 38.6562C10.1781 38.2917 10.1104 37.9948 9.94375 37.7656C9.7875 37.5365 9.54271 37.4062 9.20937 37.375C8.86562 37.3229 8.56875 37.3958 8.31875 37.5938C8.06875 37.7812 7.92812 38.0625 7.89687 38.4375C7.87604 38.6771 7.89167 38.9219 7.94375 39.1719C7.99583 39.4115 8.06875 39.651 8.1625 39.8906C8.26667 40.1198 8.38125 40.3438 8.50625 40.5625C8.63125 40.7708 8.75104 40.9583 8.86562 41.125C9.00104 40.9688 9.13646 40.7917 9.27187 40.5938C9.41771 40.3958 9.54792 40.1875 9.6625 39.9688C9.7875 39.75 9.89167 39.5312 9.975 39.3125C10.0687 39.0833 10.126 38.8646 10.1469 38.6562ZM10.6469 48.9062C10.3344 48.5312 10.0115 48.1458 9.67812 47.75C9.34479 47.3542 9.02187 46.9688 8.70937 46.5938C8.57396 46.7396 8.42292 46.9167 8.25625 47.125C8.08958 47.3333 7.92812 47.5573 7.77187 47.7969C7.62604 48.026 7.49583 48.2656 7.38125 48.5156C7.26667 48.7552 7.19896 48.9896 7.17812 49.2188C7.15729 49.5208 7.24062 49.7969 7.42812 50.0469C7.62604 50.2969 7.87604 50.4375 8.17812 50.4688C8.39687 50.5 8.62083 50.4688 8.85 50.375C9.08958 50.2708 9.31875 50.1354 9.5375 49.9688C9.75625 49.8021 9.95937 49.625 10.1469 49.4375C10.3448 49.2396 10.5115 49.0625 10.6469 48.9062ZM49.3544 40.5938C49.3544 41.6042 49.2033 42.5 48.9012 43.2812C48.5992 44.0625 48.1825 44.75 47.6512 45.3438C47.1304 45.9271 46.5158 46.4219 45.8075 46.8281C45.0992 47.224 44.3387 47.5521 43.5262 47.8125C42.7242 48.0625 41.8908 48.25 41.0262 48.375C40.1617 48.4896 39.3127 48.5521 38.4794 48.5625V55.2188H31.1981C31.1981 54.0312 31.1981 52.875 31.1981 51.75C31.2085 50.625 31.2137 49.5104 31.2137 48.4062C31.2242 47.2917 31.2294 46.1719 31.2294 45.0469C31.2398 43.9219 31.2502 42.7604 31.2606 41.5625C31.2815 40.2917 31.2867 39.0208 31.2762 37.75C31.2658 36.4792 31.2919 35.1979 31.3544 33.9062C32.6877 33.5104 34.021 33.2135 35.3544 33.0156C36.6877 32.8177 38.0627 32.7188 39.4794 32.7188C40.2815 32.7188 41.0835 32.7865 41.8856 32.9219C42.6877 33.0469 43.4533 33.25 44.1825 33.5312C44.9221 33.8125 45.6044 34.1667 46.2294 34.5938C46.8648 35.0104 47.4117 35.5104 47.87 36.0938C48.3283 36.6771 48.6877 37.3438 48.9481 38.0938C49.219 38.8438 49.3544 39.6771 49.3544 40.5938ZM42.4169 41.125C42.4169 40.4479 42.2085 39.9219 41.7919 39.5469C41.3856 39.1615 40.8544 38.9688 40.1981 38.9688C39.9794 38.9688 39.7502 38.9896 39.5106 39.0312C39.2815 39.0625 39.0627 39.1042 38.8544 39.1562L38.6669 43.7188C38.8127 43.7396 38.9533 43.75 39.0887 43.75C39.2242 43.75 39.3648 43.75 39.5106 43.75C39.8856 43.75 40.245 43.6875 40.5887 43.5625C40.9429 43.4375 41.2554 43.2604 41.5262 43.0312C41.7971 42.7917 42.0106 42.5156 42.1669 42.2031C42.3335 41.8802 42.4169 41.5208 42.4169 41.125ZM65.7081 46.7188L65.0519 53.6562L51.8956 54.6875L52.3956 32.375H60.5206L59.3644 46.7188H65.7081ZM109.259 33.8438L101.916 45.8438L102.134 54.6875H94.1031L94.2906 45.9062L88.5719 34.3125L96.5406 33.3125L99.0406 40.0625L101.759 33.3125L109.259 33.8438Z" fill="black"/>
<path d="M53.7556 22.375L45.9431 22.75L45.8806 16.1562H42.2869L42.0681 23H35.0681L35.6619 1.03125L43.0994 1.375L42.6306 12.5938H46.0994L46.1306 0.84375L53.2556 1.03125L53.7556 22.375ZM87.9056 53.6562L80.1556 54.6562L79.2181 51.125H75.6556L74.8744 54.6562L66.9056 53.875L73.1244 33.0625L81.8119 32.625L87.9056 53.6562ZM78.6556 46.3438L77.4681 40.9062L76.3119 46.3438H78.6556Z" fill="#ff6899"/>
</svg>
